<mxfile host="app.diagrams.net" modified="2024-03-07T21:19:16.444Z" agent="Mozilla/5.0 (Windows NT 10.0; Win64; x64) AppleWebKit/537.36 (KHTML, like Gecko) Chrome/122.0.0.0 Safari/537.36" etag="3HhL3NkenmThOI86VvkT" version="24.0.2" type="device">
  <diagram name="PÃ¡gina-1" id="QcChUmo_gysE-kGUcOuy">
    <mxGraphModel dx="2514" dy="918" grid="1" gridSize="10" guides="1" tooltips="1" connect="1" arrows="1" fold="1" page="1" pageScale="1" pageWidth="827" pageHeight="1169" math="0" shadow="0">
      <root>
        <mxCell id="0" />
        <mxCell id="1" parent="0" />
        <mxCell id="DHuI-k1XoIl84UGuGL2s-11" style="edgeStyle=orthogonalEdgeStyle;rounded=0;orthogonalLoop=1;jettySize=auto;html=1;entryX=0;entryY=0.5;entryDx=0;entryDy=0;" parent="1" source="DJfP_Q9I19m_TpOC9cHo-1" target="DHuI-k1XoIl84UGuGL2s-7" edge="1">
          <mxGeometry relative="1" as="geometry">
            <Array as="points">
              <mxPoint x="-250" y="74" />
            </Array>
          </mxGeometry>
        </mxCell>
        <mxCell id="DJfP_Q9I19m_TpOC9cHo-1" value="ms-client" style="image;aspect=fixed;html=1;points=[];align=center;fontSize=12;image=img/lib/azure2/compute/Azure_Spring_Cloud.svg;" parent="1" vertex="1">
          <mxGeometry x="-285" y="130" width="68" height="68" as="geometry" />
        </mxCell>
        <mxCell id="DHuI-k1XoIl84UGuGL2s-12" style="edgeStyle=orthogonalEdgeStyle;rounded=0;orthogonalLoop=1;jettySize=auto;html=1;entryX=0;entryY=0.5;entryDx=0;entryDy=0;" parent="1" source="DJfP_Q9I19m_TpOC9cHo-2" target="DHuI-k1XoIl84UGuGL2s-10" edge="1">
          <mxGeometry relative="1" as="geometry">
            <Array as="points">
              <mxPoint x="-250" y="314" />
            </Array>
          </mxGeometry>
        </mxCell>
        <mxCell id="DJfP_Q9I19m_TpOC9cHo-2" value="ms-debitcard" style="image;aspect=fixed;html=1;points=[];align=center;fontSize=12;image=img/lib/azure2/compute/Azure_Spring_Cloud.svg;" parent="1" vertex="1">
          <mxGeometry x="-285" y="360" width="68" height="68" as="geometry" />
        </mxCell>
        <mxCell id="DHuI-k1XoIl84UGuGL2s-15" style="edgeStyle=orthogonalEdgeStyle;rounded=0;orthogonalLoop=1;jettySize=auto;html=1;entryX=0;entryY=0.5;entryDx=0;entryDy=0;" parent="1" source="DJfP_Q9I19m_TpOC9cHo-3" target="DHuI-k1XoIl84UGuGL2s-13" edge="1">
          <mxGeometry relative="1" as="geometry">
            <Array as="points">
              <mxPoint x="-250" y="734" />
            </Array>
          </mxGeometry>
        </mxCell>
        <mxCell id="DJfP_Q9I19m_TpOC9cHo-3" value="ms-transaction" style="image;aspect=fixed;html=1;points=[];align=center;fontSize=12;image=img/lib/azure2/compute/Azure_Spring_Cloud.svg;" parent="1" vertex="1">
          <mxGeometry x="-285" y="600" width="68" height="68" as="geometry" />
        </mxCell>
        <mxCell id="DJfP_Q9I19m_TpOC9cHo-5" style="edgeStyle=orthogonalEdgeStyle;rounded=0;orthogonalLoop=1;jettySize=auto;html=1;dashed=1;" parent="1" source="DJfP_Q9I19m_TpOC9cHo-4" target="DJfP_Q9I19m_TpOC9cHo-2" edge="1">
          <mxGeometry relative="1" as="geometry" />
        </mxCell>
        <mxCell id="DJfP_Q9I19m_TpOC9cHo-4" value="config-server" style="image;aspect=fixed;html=1;points=[];align=center;fontSize=12;image=img/lib/azure2/compute/Azure_Spring_Cloud.svg;" parent="1" vertex="1">
          <mxGeometry x="-564" y="360" width="68" height="68" as="geometry" />
        </mxCell>
        <mxCell id="DJfP_Q9I19m_TpOC9cHo-6" style="edgeStyle=orthogonalEdgeStyle;rounded=0;orthogonalLoop=1;jettySize=auto;html=1;entryX=0.015;entryY=0.426;entryDx=0;entryDy=0;entryPerimeter=0;dashed=1;" parent="1" source="DJfP_Q9I19m_TpOC9cHo-4" target="DJfP_Q9I19m_TpOC9cHo-1" edge="1">
          <mxGeometry relative="1" as="geometry" />
        </mxCell>
        <mxCell id="DJfP_Q9I19m_TpOC9cHo-7" style="edgeStyle=orthogonalEdgeStyle;rounded=0;orthogonalLoop=1;jettySize=auto;html=1;entryX=-0.015;entryY=0.574;entryDx=0;entryDy=0;entryPerimeter=0;dashed=1;" parent="1" source="DJfP_Q9I19m_TpOC9cHo-4" target="DJfP_Q9I19m_TpOC9cHo-3" edge="1">
          <mxGeometry relative="1" as="geometry" />
        </mxCell>
        <mxCell id="DJfP_Q9I19m_TpOC9cHo-9" value="config-server-files" style="image;html=1;image=img/lib/clip_art/general/Empty_Folder_128x128.png;dashed=1;" parent="1" vertex="1">
          <mxGeometry x="-570" y="554" width="80" height="80" as="geometry" />
        </mxCell>
        <mxCell id="DJfP_Q9I19m_TpOC9cHo-11" value="" style="endArrow=none;dashed=1;html=1;rounded=0;exitX=0.5;exitY=0;exitDx=0;exitDy=0;" parent="1" source="DJfP_Q9I19m_TpOC9cHo-9" target="DJfP_Q9I19m_TpOC9cHo-4" edge="1">
          <mxGeometry width="50" height="50" relative="1" as="geometry">
            <mxPoint x="-154" y="430" as="sourcePoint" />
            <mxPoint x="-104" y="380" as="targetPoint" />
          </mxGeometry>
        </mxCell>
        <mxCell id="hUz8E5NGUqdFPx73NyBZ-1" value="kafka" style="endArrow=none;dashed=1;html=1;rounded=0;entryX=0.971;entryY=0.485;entryDx=0;entryDy=0;entryPerimeter=0;exitX=0.985;exitY=0.529;exitDx=0;exitDy=0;exitPerimeter=0;dashPattern=1 4;" parent="1" source="DJfP_Q9I19m_TpOC9cHo-3" target="DJfP_Q9I19m_TpOC9cHo-2" edge="1">
          <mxGeometry width="50" height="50" relative="1" as="geometry">
            <mxPoint x="-350" y="510" as="sourcePoint" />
            <mxPoint x="-300" y="460" as="targetPoint" />
            <Array as="points">
              <mxPoint x="-140" y="636" />
              <mxPoint x="-140" y="520" />
              <mxPoint x="-140" y="393" />
            </Array>
          </mxGeometry>
        </mxCell>
        <mxCell id="DHuI-k1XoIl84UGuGL2s-7" value="" style="shape=image;verticalLabelPosition=bottom;labelBackgroundColor=default;verticalAlign=top;aspect=fixed;imageAspect=0;image=https://lrbinfotech.com/development_process/mongo.png;clipPath=inset(19% 3.85% 21.67% 1.48%);" parent="1" vertex="1">
          <mxGeometry x="-190" y="40" width="60.9" height="67.75" as="geometry" />
        </mxCell>
        <mxCell id="DHuI-k1XoIl84UGuGL2s-9" value="GitHub" style="text;html=1;align=center;verticalAlign=middle;whiteSpace=wrap;rounded=0;" parent="1" vertex="1">
          <mxGeometry x="-560" y="579" width="60" height="30" as="geometry" />
        </mxCell>
        <mxCell id="DHuI-k1XoIl84UGuGL2s-10" value="" style="shape=image;verticalLabelPosition=bottom;labelBackgroundColor=default;verticalAlign=top;aspect=fixed;imageAspect=0;image=https://lrbinfotech.com/development_process/mongo.png;clipPath=inset(19% 3.85% 21.67% 1.48%);" parent="1" vertex="1">
          <mxGeometry x="-190" y="280" width="60.9" height="67.75" as="geometry" />
        </mxCell>
        <mxCell id="DHuI-k1XoIl84UGuGL2s-13" value="" style="shape=image;verticalLabelPosition=bottom;labelBackgroundColor=default;verticalAlign=top;aspect=fixed;imageAspect=0;image=https://lrbinfotech.com/development_process/mongo.png;clipPath=inset(19% 3.85% 21.67% 1.48%);" parent="1" vertex="1">
          <mxGeometry x="-190" y="700" width="60.9" height="67.75" as="geometry" />
        </mxCell>
        <mxCell id="DHuI-k1XoIl84UGuGL2s-16" value="consumer" style="text;html=1;align=center;verticalAlign=middle;whiteSpace=wrap;rounded=0;" parent="1" vertex="1">
          <mxGeometry x="-210" y="368" width="60" height="30" as="geometry" />
        </mxCell>
        <mxCell id="DHuI-k1XoIl84UGuGL2s-18" value="producer" style="text;html=1;align=center;verticalAlign=middle;whiteSpace=wrap;rounded=0;" parent="1" vertex="1">
          <mxGeometry x="-210" y="609" width="60" height="30" as="geometry" />
        </mxCell>
        <mxCell id="DHuI-k1XoIl84UGuGL2s-22" value="$200" style="edgeStyle=orthogonalEdgeStyle;rounded=0;orthogonalLoop=1;jettySize=auto;html=1;" parent="1" source="DHuI-k1XoIl84UGuGL2s-19" target="DHuI-k1XoIl84UGuGL2s-21" edge="1">
          <mxGeometry relative="1" as="geometry" />
        </mxCell>
        <mxCell id="DHuI-k1XoIl84UGuGL2s-19" value="DEBIT-CARD-1&lt;div&gt;$1000&lt;/div&gt;" style="text;html=1;align=center;verticalAlign=middle;whiteSpace=wrap;rounded=0;" parent="1" vertex="1">
          <mxGeometry x="1110" y="618.88" width="160" height="30" as="geometry" />
        </mxCell>
        <mxCell id="DHuI-k1XoIl84UGuGL2s-21" value="DEBIT-CARD-2&lt;div&gt;$500&lt;/div&gt;" style="text;html=1;align=center;verticalAlign=middle;whiteSpace=wrap;rounded=0;" parent="1" vertex="1">
          <mxGeometry x="1444" y="618.88" width="160" height="30" as="geometry" />
        </mxCell>
        <mxCell id="DHuI-k1XoIl84UGuGL2s-25" value="DEBIT-CARD-1&lt;div&gt;$800&lt;/div&gt;" style="text;html=1;align=center;verticalAlign=middle;whiteSpace=wrap;rounded=0;" parent="1" vertex="1">
          <mxGeometry x="1134" y="210" width="160" height="30" as="geometry" />
        </mxCell>
        <mxCell id="DHuI-k1XoIl84UGuGL2s-26" value="DEBIT-CARD-2&lt;div&gt;$700&lt;/div&gt;" style="text;html=1;align=center;verticalAlign=middle;whiteSpace=wrap;rounded=0;" parent="1" vertex="1">
          <mxGeometry x="1290" y="210" width="160" height="30" as="geometry" />
        </mxCell>
        <mxCell id="PpIgjnjNeIsA2Y6amga6-1" value="DEV" style="text;html=1;align=center;verticalAlign=middle;whiteSpace=wrap;rounded=0;" vertex="1" parent="1">
          <mxGeometry x="-670" y="570" width="60" height="30" as="geometry" />
        </mxCell>
        <mxCell id="PpIgjnjNeIsA2Y6amga6-2" value="QA" style="text;html=1;align=center;verticalAlign=middle;whiteSpace=wrap;rounded=0;" vertex="1" parent="1">
          <mxGeometry x="-670" y="621.12" width="60" height="30" as="geometry" />
        </mxCell>
        <mxCell id="PpIgjnjNeIsA2Y6amga6-3" value="PROD" style="text;html=1;align=center;verticalAlign=middle;whiteSpace=wrap;rounded=0;" vertex="1" parent="1">
          <mxGeometry x="-670" y="691.12" width="60" height="30" as="geometry" />
        </mxCell>
      </root>
    </mxGraphModel>
  </diagram>
</mxfile>
